<?xml version="1.0" encoding="iso-8859-1"?>
<!-- Generator: Adobe Illustrator 21.1.0, SVG Export Plug-In . SVG Version: 6.00 Build 0)  -->
<svg version="1.1" id="Layer_1" xmlns="http://www.w3.org/2000/svg" xmlns:xlink="http://www.w3.org/1999/xlink" x="0px" y="0px"
	 viewBox="0 0 200 200" style="enable-background:new 0 0 200 200;" xml:space="preserve">
<style type="text/css">
	.st0{fill:none;}
	.st1{opacity:0.52;fill:none;stroke:#F27E8F;stroke-width:2.3726;stroke-miterlimit:10;}
	.st2{opacity:0.52;fill:none;stroke:#1A1F29;stroke-width:11.863;stroke-miterlimit:10;}
	.st3{fill:#FFFFFF;}
	.st4{fill:#EAEDED;}
	.st5{fill:#EFF2F2;}
	.st6{fill:#D8DFE3;}
	.st7{fill:#E2E9ED;}
	.st8{fill:#F9FCFC;}
	.st9{fill:#4EBFC9;}
	.st10{fill:#0A848F;}
	.st11{fill:#076870;}
	.st12{fill:#4AF1FF;}
	.st13{fill:#31CFDC;}
	.st14{fill:#07C1D1;}
	.st15{fill:#EC5268;}
	.st16{fill:#C74F62;}
	.st17{fill:#F97792;}
	.st18{opacity:0.76;fill:#F25C75;enable-background:new    ;}
	.st19{fill:#2F4757;}
	.st20{fill:#50728A;}
	.st21{fill:#47657A;}
	.st22{fill:#1E2B33;}
	.st23{fill:#19242B;}
	.st24{fill:#19A9F0;}
	.st25{fill:#0D76B7;}
	.st26{fill:#1491DF;}
	.st27{fill:#0B69A2;}
	.st28{fill:#39455C;}
	.st29{clip-path:url(#SVGID_2_);}
	.st30{fill:url(#SVGID_3_);}
	.st31{fill:#EACCC5;}
	.st32{opacity:0.37;clip-path:url(#SVGID_2_);}
	.st33{fill:url(#SVGID_4_);}
	.st34{fill:#F27E8F;}
	.st35{fill:#51AEF5;}
	.st36{fill:#FBFEFF;}
	.st37{fill:#CF354C;}
	.st38{fill:none;stroke:#CF354C;stroke-width:1.318;stroke-linecap:round;stroke-miterlimit:10;}
	.st39{fill:#1A1F29;}
	.st40{fill:url(#SVGID_5_);}
	.st41{fill-rule:evenodd;clip-rule:evenodd;fill:#19AAF4;}
</style>
<pattern  y="200" width="37.208" height="37.208" patternUnits="userSpaceOnUse" id="New_Pattern_Swatch_4" viewBox="21.73 -58.938 37.208 37.208" style="overflow:visible;">
	<g>
		<rect x="21.73" y="-58.938" class="st0" width="37.208" height="37.208"/>
		<line class="st1" x1="0" y1="-40.334" x2="80.668" y2="-40.334"/>
		<line class="st2" x1="21.73" y1="-80.668" x2="21.73" y2="0"/>
		<line class="st1" x1="40.334" y1="-80.668" x2="40.334" y2="0"/>
		<line class="st2" x1="58.938" y1="-80.668" x2="58.938" y2="0"/>
		<line class="st2" x1="0" y1="-21.73" x2="80.668" y2="-21.73"/>
		<line class="st2" x1="0" y1="-58.938" x2="80.668" y2="-58.938"/>
	</g>
</pattern>
<g id="stack-cloud_x60_114x125">
	<polygon class="st3" points="0,85.855 56.161,114.807 113.667,85.335 57.499,56.385 	"/>
	<polygon class="st3" points="48.249,92.368 68.065,102.783 77.98,97.666 58.157,87.262 	"/>
	<polygon class="st4" points="77.98,97.604 58.157,87.197 58.157,94.064 71.444,101.04 	"/>
	<polyline class="st5" points="58.157,87.197 58.157,94.064 54.808,95.812 48.249,92.368 	"/>
	<polygon class="st3" points="60.825,85.851 80.643,96.262 90.557,91.151 70.733,80.744 	"/>
	<polygon class="st4" points="90.557,91.087 70.733,80.677 70.733,87.545 84.019,94.519 	"/>
	<polyline class="st5" points="70.733,80.677 70.733,87.545 67.384,89.293 60.825,85.851 	"/>
	<polygon class="st3" points="73.402,79.268 93.219,89.679 103.132,84.568 83.31,74.161 	"/>
	<polygon class="st4" points="103.132,84.503 83.31,74.094 83.31,80.96 96.596,87.937 	"/>
	<polyline class="st5" points="83.31,74.094 83.31,80.96 79.962,82.711 73.402,79.268 	"/>
	<polygon class="st6" points="56.161,114.88 0,85.931 0,95.122 56.161,124.07 	"/>
	<polygon class="st7" points="56.161,114.88 113.667,85.335 113.667,94.526 56.161,124.07 	"/>
	<polygon class="st3" points="9.994,85.465 20.35,90.952 30.262,85.841 19.904,80.357 	"/>
	<polygon class="st6" points="30.262,85.776 19.904,80.291 19.904,87.159 23.728,89.211 	"/>
	<polygon class="st8" points="22.569,78.881 42.386,89.293 52.299,84.181 32.478,73.774 	"/>
	<polygon class="st4" points="52.299,84.116 32.478,73.711 32.478,80.575 45.764,87.551 	"/>
	<polyline class="st5" points="32.478,73.711 32.478,80.575 29.126,82.326 22.569,78.881 	"/>
	<polygon class="st3" points="45.766,103.938 56.123,109.423 66.035,104.314 55.676,98.83 	"/>
	<polygon class="st6" points="66.035,104.249 55.676,98.764 55.676,105.632 59.502,107.683 	"/>
	<polyline class="st7" points="55.676,98.764 55.676,105.632 51.988,107.549 45.43,104.106 	"/>
	<polygon class="st3" points="27.267,94.677 37.625,100.164 47.537,95.053 37.176,89.569 	"/>
	<polygon class="st6" points="47.537,94.988 37.176,89.503 37.176,96.371 41,98.423 	"/>
	<polyline class="st7" points="37.176,89.503 37.176,96.371 33.824,98.122 27.267,94.677 	"/>
	<polyline class="st7" points="19.896,80.281 19.896,87.148 16.542,88.898 9.986,85.453 	"/>
	<polygon class="st9" points="39.909,67.22 20.581,77.373 10.909,72.387 30.244,62.238 	"/>
	<polygon class="st9" points="87.3,68.115 67.97,78.27 58.3,73.285 77.636,63.136 	"/>
	<polygon class="st10" points="87.3,75.763 87.3,68.117 67.97,78.27 67.97,85.677 	"/>
	<polygon class="st11" points="67.97,78.27 58.3,73.285 58.3,80.731 67.97,85.677 	"/>
	<polygon class="st10" points="39.909,74.866 39.909,67.22 20.581,77.373 20.581,84.779 	"/>
	<polygon class="st11" points="20.581,77.373 10.909,72.387 10.909,79.834 20.581,84.779 	"/>
	<polygon class="st9" points="52.178,73.641 32.848,83.796 23.179,78.81 42.512,68.659 	"/>
	<polygon class="st10" points="52.178,81.287 52.178,73.641 32.848,83.796 32.848,91.202 	"/>
	<polygon class="st11" points="32.848,83.796 23.179,78.81 23.179,86.256 32.848,91.202 	"/>
	<polygon class="st9" points="64.444,80.062 45.115,90.216 35.444,85.232 54.779,75.08 	"/>
	<polygon class="st10" points="64.444,87.709 64.444,80.063 45.115,90.216 45.115,97.623 	"/>
	<polygon class="st11" points="45.115,90.216 35.444,85.232 35.444,92.679 45.115,97.623 	"/>
	<polygon class="st9" points="99.032,73.278 67.054,90.041 59.14,85.964 91.125,69.202 	"/>
	<polygon class="st10" points="99.032,80.727 99.032,73.278 67.054,90.041 67.054,97.292 	"/>
	<polygon class="st11" points="67.054,90.041 59.14,85.964 59.14,93.248 67.054,97.292 	"/>
	<polygon class="st12" points="64.257,91.396 56.351,95.474 48.438,91.396 56.351,87.319 	"/>
	<polygon class="st13" points="64.257,98.846 64.257,91.396 56.351,95.474 56.351,102.726 	"/>
	<polygon class="st14" points="56.351,95.474 48.438,91.396 48.438,98.68 56.351,102.726 	"/>
	<polygon class="st15" points="56.725,76.192 111.079,48.178 111.079,56.349 56.725,84.364 	"/>
	<polygon class="st16" points="56.725,76.192 2.374,48.178 2.374,56.349 56.725,84.364 	"/>
	<polygon class="st17" points="111.079,48.178 56.725,76.192 2.374,48.178 56.725,20.162 	"/>
	<polygon class="st18" points="104.969,45.312 56.725,70.177 8.48,45.312 56.725,20.445 	"/>
	<polygon class="st19" points="111.071,28.204 56.348,56.409 1.628,28.204 56.348,0 	"/>
	<polygon class="st20" points="25.672,23.618 14.781,29.225 12.838,28.202 23.731,22.597 	"/>
	<polygon class="st21" points="37.323,21.174 21.997,29.072 20.056,28.052 35.383,20.151 	"/>
	<polygon class="st21" points="40.785,22.959 25.459,30.857 23.516,29.836 38.844,21.936 	"/>
	<polygon class="st21" points="44.247,24.742 28.921,32.642 26.981,31.619 42.308,23.719 	"/>
	<polygon class="st20" points="41.479,31.773 30.586,37.38 28.644,36.357 39.537,30.751 	"/>
	<polygon class="st21" points="53.13,29.329 37.805,37.228 35.863,36.206 51.191,28.306 	"/>
	<polygon class="st21" points="56.594,31.113 41.267,39.013 39.325,37.991 54.65,30.092 	"/>
	<polygon class="st21" points="60.055,32.898 44.729,40.798 42.789,39.775 58.115,31.875 	"/>
	<polygon class="st20" points="56.737,39.638 45.846,45.244 43.906,44.222 54.797,38.615 	"/>
	<polygon class="st21" points="68.391,37.193 53.063,45.094 51.122,44.07 66.449,36.171 	"/>
	<polygon class="st21" points="71.851,38.977 56.528,46.878 54.584,45.855 69.91,37.956 	"/>
	<polygon class="st21" points="75.315,40.761 59.987,48.661 58.046,47.64 73.373,39.74 	"/>
	<polygon class="st20" points="50.14,11.128 39.247,16.735 37.306,15.712 48.199,10.105 	"/>
	<polygon class="st21" points="61.791,8.684 46.465,16.583 44.524,15.56 59.851,7.662 	"/>
	<polygon class="st21" points="65.253,10.468 49.927,18.366 47.987,17.345 63.312,9.445 	"/>
	<polygon class="st21" points="68.715,12.25 53.389,20.151 51.448,19.129 66.775,11.23 	"/>
	<polygon class="st20" points="65.946,19.282 55.054,24.887 53.115,23.867 64.006,18.259 	"/>
	<polygon class="st21" points="77.6,16.839 62.273,24.738 60.333,23.715 75.657,15.816 	"/>
	<polygon class="st21" points="81.063,18.623 65.736,26.523 63.793,25.5 79.119,17.601 	"/>
	<polygon class="st21" points="84.523,20.406 69.197,28.306 67.255,27.285 82.583,19.385 	"/>
	<polygon class="st20" points="81.205,27.145 70.315,32.754 68.374,31.731 79.264,26.125 	"/>
	<polygon class="st21" points="92.857,24.703 77.533,32.601 75.591,31.58 90.916,23.679 	"/>
	<polygon class="st21" points="96.321,26.486 80.993,34.387 79.052,33.365 94.379,25.464 	"/>
	<polygon class="st21" points="99.781,28.271 84.457,36.171 82.515,35.149 97.841,27.247 	"/>
	<polygon class="st22" points="56.348,56.409 111.071,28.204 111.071,36.431 56.348,64.635 	"/>
	<polygon class="st23" points="56.348,56.409 1.628,28.204 1.628,36.431 56.348,64.635 	"/>
</g>
<g id="blue-meteor_x60_71x89">
	<polygon class="st24" points="48.114,59.299 18.504,51.382 10.508,21.693 32.201,0 61.89,7.996 69.807,37.606 	"/>
	<polyline class="st25" points="39.01,57.003 48.114,59.299 69.807,37.606 64.186,16.943 34.576,9.026 	"/>
	<path class="st26" d="M15.575,75.688c-1.346-1.346-1.267-3.484,0-4.75l22.6-22.6l-3.618-0.974L24.6,57.32
		c-1.267,1.267-3.404,1.346-4.75,0c-1.346-1.346-1.267-3.484,0-4.75l7.221-7.221l-1.996-0.537l-0.508-1.867L12.408,55.103
		c-1.267,1.267-3.404,1.346-4.75,0c-1.267-1.267-1.267-3.484,0-4.75l14.409-14.409c0.151-0.151,0.315-0.282,0.488-0.399
		l-1.103-4.053l-11.34,11.34c-1.267,1.267-3.404,1.346-4.75,0c-1.346-1.346-1.267-3.484,0-4.75l14.409-14.409
		c0.196-0.196,0.418-0.354,0.65-0.492L34.576,9.025l20.743,5.542l5.463,20.664L45.66,50.353l-0.059-0.016
		c-0.103,0.143-0.209,0.285-0.337,0.412L20.325,75.688C19.058,76.954,16.921,77.033,15.575,75.688z"/>
	<g>
		
			<ellipse transform="matrix(0.7071 -0.7071 0.7071 0.7071 -41.0752 19.7506)" class="st26" cx="3.303" cy="59.457" rx="3.247" ry="3.359"/>
	</g>
	<path class="st26" d="M3.858,87.405c-1.346-1.346-1.267-3.484,0-4.75l4.275-4.275c1.267-1.267,3.404-1.346,4.75,0
		c1.346,1.346,1.267,3.484,0,4.75l-4.275,4.275C7.341,88.672,5.204,88.751,3.858,87.405z"/>
	<polyline class="st27" points="36.872,17.338 57.456,22.722 60.782,35.231 48.431,47.582 39.722,44.89 	"/>
	<polyline class="st25" points="36.001,18.684 39.326,31.193 31.726,38.794 23.017,36.102 	"/>
	<path class="st3" d="M37.98,44.257c-0.871-0.871-0.871-2.454,0.079-3.404l0.144-0.144l-3.867-1.041l-5.54,5.54
		c-0.95,0.95-2.534,0.95-3.404,0.079c-0.871-0.871-0.871-2.454,0.079-3.404l5.084-5.084l-1.377-5.115l-3.786,3.786
		c-0.95,0.95-2.533,0.95-3.404,0.079c-0.871-0.871-0.871-2.454,0.079-3.404l5.7-5.7l2.138-2.138l6.967-6.967l12.351,3.325
		l3.325,12.351l-6.967,6.967l-2.138,2.138l-2.058,2.058C40.435,45.127,38.851,45.127,37.98,44.257z"/>
</g>
<g id="helper_x60_132x132">
	<circle class="st28" cx="62.216" cy="62.216" r="62.216"/>
	<g>
		<defs>
			<circle id="SVGID_1_" cx="62.216" cy="62.216" r="62.216"/>
		</defs>
		<clipPath id="SVGID_2_">
			<use xlink:href="#SVGID_1_"  style="overflow:visible;"/>
		</clipPath>
		<g class="st29">
			<linearGradient id="SVGID_3_" gradientUnits="userSpaceOnUse" x1="72.1832" y1="123.9673" x2="50.6669" y2="98.1479">
				<stop  offset="0" style="stop-color:#34A0F4"/>
				<stop  offset="1" style="stop-color:#51AEF5"/>
			</linearGradient>
			<path class="st30" d="M102.585,128.074c0.323,2.028-1.093,3.688-3.147,3.688H28.821c-2.054,0-3.47-1.66-3.147-3.688l5.574-35.02
				c0.323-2.028,2.253-3.91,4.288-4.181l25.136-3.347c2.036-0.271,5.367-0.268,7.402,0.007l24.65,3.333
				c2.035,0.275,3.965,2.16,4.287,4.188L102.585,128.074z"/>
		</g>
		<g class="st29">
			<circle class="st31" cx="64.373" cy="88.048" r="8.999"/>
		</g>
		<g class="st32">
			
				<pattern  id="SVGID_4_" xlink:href="#New_Pattern_Swatch_4" patternTransform="matrix(0.2197 0 0 0.2197 -6320.7212 -6612.6279)"  style="opacity:0.37;">
			</pattern>
			<circle class="st33" cx="64.373" cy="88.048" r="8.999"/>
		</g>
	</g>
	<circle class="st34" cx="64.373" cy="88.048" r="5.931"/>
	<circle class="st35" cx="116.322" cy="31.482" r="15.247"/>
	<g>
		<path class="st34" d="M59.253,91.04l3.918,11.522c0.661,1.944,1.754,1.948,2.428,0.008l4.47-12.866"/>
	</g>
	<polygon class="st36" points="116.322,24.527 117.883,29.333 122.936,29.333 118.848,32.303 120.41,37.109 116.322,34.139 
		112.234,37.109 113.795,32.303 109.707,29.333 114.76,29.333 	"/>
	<rect x="58.443" y="75.616" class="st34" width="11.862" height="12.432"/>
	<polygon class="st34" points="82.764,62.362 45.575,62.362 45.575,40.215 82.764,43.661 	"/>
	<path class="st37" d="M58.443,82.117c0,0,1.92,2.915,5.931,2.915s5.931-3.201,5.931-3.201v-4.945l-11.923,0.569L58.443,82.117z"/>
	<circle class="st34" cx="64.129" cy="62.216" r="18.555"/>
	<path class="st38" d="M68.344,73.654c-1.35,0.186-2.728,0.282-4.129,0.282c-1.827,0-3.615-0.163-5.352-0.476"/>
	<circle class="st39" cx="73.417" cy="61.807" r="1.697"/>
	<path class="st38" d="M68.547,58.523c1.055-1.562,2.843-2.589,4.87-2.589c2.144,0,4.019,1.148,5.045,2.864"/>
	<circle class="st39" cx="54.842" cy="61.807" r="1.697"/>
	<path class="st38" d="M50.585,58.399c0.999-1.247,2.535-2.045,4.257-2.045c3.011,0,5.452,2.441,5.452,5.452v5.788h4.462"/>
	<path class="st34" d="M70.744,44.644"/>
	<path class="st39" d="M58.796,31.267c10.706,1.444,19.663,14.887,26.75,9.484c-0.997,7.392-19.714,9.539-28.789,5.626"/>
	<path class="st39" d="M57.77,31.488c10.794-0.437,21.95,11.246,27.991,4.694c0.302,7.453-17.757,12.818-27.374,10.54"/>
	
		<ellipse transform="matrix(0.9992 -0.0405 0.0405 0.9992 -1.5348 2.382)" class="st39" cx="58.078" cy="39.106" rx="7.624" ry="7.624"/>
	<circle class="st39" cx="48.08" cy="40.215" r="2.505"/>
	<polygon class="st39" points="45.575,40.302 50.273,41.427 45.575,49.377 	"/>
	<g>
		<linearGradient id="SVGID_5_" gradientUnits="userSpaceOnUse" x1="66.6246" y1="103.2473" x2="67.5588" y2="87.0559">
			<stop  offset="0" style="stop-color:#F27E8F"/>
			<stop  offset="1" style="stop-color:#CF354C"/>
		</linearGradient>
		<path class="st40" d="M67.744,82.266c0.155,0.55,0.281,2.575,0.281,4.5s-0.533,5.094-1.184,7.042l-2.111,6.315
			c-0.651,1.948-0.998,4.089-0.77,4.758c0.227,0.669,0.965-0.371,1.639-2.311l2.948-8.486c0.674-1.94,1.345-4.092,1.491-4.781
			c0.146-0.69,0.266-2.934,0.266-4.988v-0.862c0-2.054-0.639-3.386-1.421-2.96S67.589,81.716,67.744,82.266z"/>
	</g>
</g>
<g id="down-arrow_x60_18x18">
	<rect x="4.094" class="st41" width="9.403" height="9.403"/>
	<polygon class="st41" points="8.795,17.821 0,9.026 17.591,9.026 	"/>
</g>
</svg>
